Coordinates
version=1
nRows=38
nColumns=12
inDegrees=yes

Units are S.I. units (second, meters, Newtons, ...)
Angles are in degrees

endheader
time	SC_y	SC_z	SC_x	AC_y	AC_z	AC_x	GH_y	GH_z	GH_yy	EL_x	PS_y
       0.0               -41.0          20.55          67.78          41.88          5.089         -2.343          86.43           86.9          164.4          81.99          94.14
  0.009722               -41.0          20.55          67.78          41.88          5.088         -2.342          86.43          86.89          164.4          81.99          94.13
   0.01944               -41.0          20.55          67.78          41.88          5.087         -2.341          86.42          86.87          164.4          81.99          94.13
   0.02917               -41.0          20.55          67.78          41.87          5.085          -2.34          86.42          86.86          164.4           82.0          94.12
   0.03889               -41.0          20.54          67.77          41.87          5.084         -2.339          86.41          86.85          164.4           82.0          94.11
   0.04861               -41.0          20.54          67.77          41.87          5.083         -2.338          86.41          86.83          164.4          82.01           94.1
   0.05833               -41.0          20.54          67.77          41.87          5.081         -2.336           86.4          86.81          164.4          82.01          94.09
   0.06805               -41.0          20.53          67.77          41.87          5.079         -2.335          86.39          86.79          164.4          82.02          94.08
   0.07777              -41.01          20.53          67.77          41.87          5.078         -2.334          86.39          86.77          164.4          82.02          94.07
    0.0875              -41.01          20.52          67.77          41.86          5.076         -2.332          86.38          86.75          164.4          82.03          94.06
   0.09722              -41.01          20.52          67.77          41.86          5.074          -2.33          86.37          86.73          164.4          82.04          94.04
    0.1069              -41.01          20.51          67.77          41.86          5.071         -2.329          86.36           86.7          164.4          82.04          94.03
    0.1167              -41.01          20.51          67.77          41.85          5.069         -2.327          86.35          86.68          164.4          82.05          94.02
    0.1264              -41.01           20.5          67.77          41.85          5.066         -2.325          86.34          86.65          164.4          82.06           94.0
    0.1361              -41.01          20.49          67.77          41.85          5.064         -2.322          86.33          86.62          164.4          82.07          93.98
    0.1458              -41.02          20.49          67.77          41.84          5.061          -2.32          86.32          86.59          164.4          82.08          93.96
    0.1555              -41.02          20.48          67.76          41.84          5.057         -2.317          86.31          86.55          164.4          82.09          93.94
    0.1653              -41.02          20.47          67.76          41.84          5.054         -2.314          86.29          86.51          164.4           82.1          93.92
     0.175              -41.02          20.46          67.76          41.83           5.05         -2.311          86.28          86.47          164.4          82.11           93.9
    0.1847              -41.03          20.45          67.76          41.83          5.046         -2.307          86.26          86.42          164.4          82.13          93.87
    0.1944              -41.03          20.44          67.76          41.82          5.041         -2.304          86.25          86.37          164.4          82.14          93.84
    0.2042              -41.03          20.43          67.76          41.81          5.036         -2.299          86.23          86.31          164.4          82.16          93.81
    0.2139              -41.04          20.41          67.75          41.81           5.03         -2.295           86.2          86.24          164.4          82.18          93.77
    0.2236              -41.04           20.4          67.75           41.8          5.024         -2.289          86.18          86.17          164.4           82.2          93.74
    0.2333              -41.05          20.38          67.75          41.79          5.017         -2.284          86.15           86.1          164.4          82.22          93.69
     0.243              -41.05          20.36          67.75          41.78          5.009         -2.277          86.12          86.01          164.4          82.25          93.64
    0.2528              -41.06          20.34          67.74          41.77            5.0          -2.27          86.09          85.91          164.4          82.27          93.59
    0.2625              -41.06          20.32          67.74          41.76           4.99         -2.262          86.05           85.8          164.4          82.31          93.53
    0.2722              -41.07          20.29          67.74          41.75          4.979         -2.253          86.01          85.68          164.4          82.34          93.46
    0.2819              -41.08          20.26          67.73          41.73          4.966         -2.242          85.96          85.54          164.5          82.38          93.38
    0.2917              -41.09          20.23          67.73          41.71          4.951         -2.231           85.9          85.37          164.5          82.43          93.29
    0.3014               -41.1          20.19          67.72          41.69          4.935         -2.217          85.84          85.19          164.5          82.48          93.19
    0.3111              -41.11          20.14          67.71          41.67          4.916         -2.201          85.76          84.98          164.5          82.55          93.07
    0.3208              -41.13          20.09           67.7          41.64          4.893         -2.183          85.68          84.73          164.5          82.62          92.93
    0.3305              -41.15          20.03          67.69          41.61          4.867         -2.162          85.58          84.44          164.5           82.7          92.77
    0.3403              -41.17          19.96          67.68          41.57          4.836         -2.136          85.46           84.1          164.5           82.8          92.58
      0.35              -41.19          19.87          67.67          41.53            4.8         -2.106          85.32          83.69          164.5          82.92          92.35
    0.3597              -41.22          19.76          67.65          41.48          4.756         -2.071          85.15           83.2          164.5          83.06          92.08
